<svg xmlns="http://www.w3.org/2000/svg" xmlns:xlink="http://www.w3.org/1999/xlink" width="1920" zoomAndPan="magnify" viewBox="0 0 1440 809.999993" height="1080" preserveAspectRatio="xMidYMid meet" version="1.0"><defs><g/><clipPath id="01d702206f"><path d="M 443.253906 279.875 L 684.648438 279.875 L 684.648438 521.269531 L 443.253906 521.269531 Z M 443.253906 279.875 " clip-rule="nonzero"/></clipPath><clipPath id="e37e26ad40"><path d="M 563.949219 279.875 C 497.292969 279.875 443.253906 333.910156 443.253906 400.570312 C 443.253906 467.230469 497.292969 521.269531 563.949219 521.269531 C 630.609375 521.269531 684.648438 467.230469 684.648438 400.570312 C 684.648438 333.910156 630.609375 279.875 563.949219 279.875 Z M 563.949219 279.875 " clip-rule="nonzero"/></clipPath><clipPath id="7b06ee1bdd"><path d="M 487 474 L 684.535156 474 L 684.535156 529.976562 L 487 529.976562 Z M 487 474 " clip-rule="nonzero"/></clipPath><clipPath id="a5d6bb406a"><path d="M 559 331.121094 L 624 331.121094 L 624 418 L 559 418 Z M 559 331.121094 " clip-rule="nonzero"/></clipPath><clipPath id="0af2112797"><path d="M 542 331.121094 L 609 331.121094 L 609 473 L 542 473 Z M 542 331.121094 " clip-rule="nonzero"/></clipPath></defs><rect x="-144" width="1728" fill="#ffffff" y="-80.999999" height="971.999992" fill-opacity="1"/><g clip-path="url(#01d702206f)"><g clip-path="url(#e37e26ad40)"><path fill="#a70000" d="M 443.253906 279.875 L 684.648438 279.875 L 684.648438 521.269531 L 443.253906 521.269531 Z M 443.253906 279.875 " fill-opacity="1" fill-rule="nonzero"/></g></g><g clip-path="url(#7b06ee1bdd)"><path fill="#ffffff" d="M 628.992188 502.488281 C 628.992188 487.273438 641.316406 474.890625 656.589844 474.890625 C 671.804688 474.890625 684.1875 487.214844 684.1875 502.488281 C 684.1875 517.703125 671.863281 530.085938 656.589844 530.085938 C 641.375 530.085938 628.992188 517.703125 628.992188 502.488281 Z M 515.238281 530.085938 C 530.453125 530.085938 542.835938 517.761719 542.835938 502.488281 C 542.835938 487.273438 530.511719 474.890625 515.238281 474.890625 C 499.96875 474.890625 487.640625 487.214844 487.640625 502.488281 C 487.640625 517.703125 500.027344 530.085938 515.238281 530.085938 Z M 515.238281 530.085938 " fill-opacity="1" fill-rule="nonzero"/></g><path fill="#ffffff" d="M 600.15625 472.945312 C 600.15625 472.945312 597.5625 479.726562 604.402344 479.726562 C 619.851562 479.726562 619.734375 488.746094 619.734375 488.746094 L 586.417969 488.746094 L 590.542969 472.945312 Z M 600.15625 472.945312 " fill-opacity="1" fill-rule="nonzero"/><path fill="#ffffff" d="M 621.796875 507.972656 C 615.902344 492.519531 621.855469 474.710938 636.597656 466.101562 C 651.339844 457.492188 669.800781 461.089844 680.355469 473.769531 Z M 621.796875 507.972656 " fill-opacity="1" fill-rule="nonzero"/><path fill="#ffffff" d="M 566.070312 454.546875 C 553.511719 476.835938 569.964844 488.746094 569.964844 488.746094 L 604.816406 488.746094 C 609.179688 487.097656 618.847656 477.308594 625.160156 462.800781 C 631.46875 448.292969 609.648438 402.769531 609.648438 402.769531 C 618.847656 391.152344 642.851562 396.460938 642.851562 396.460938 L 642.851562 421.167969 L 628.992188 417.277344 L 648.863281 457.964844 L 612.066406 502.488281 L 483.277344 502.488281 L 509.933594 454.546875 Z M 566.070312 454.546875 " fill-opacity="1" fill-rule="nonzero"/><path fill="#ffffff" d="M 642.851562 502.488281 C 642.851562 494.878906 648.984375 488.746094 656.589844 488.746094 C 664.195312 488.746094 670.328125 494.878906 670.328125 502.488281 C 670.328125 510.09375 664.195312 516.226562 656.589844 516.226562 C 648.984375 516.226562 642.851562 510.09375 642.851562 502.488281 Z M 515.238281 516.226562 C 522.847656 516.226562 528.980469 510.09375 528.980469 502.488281 C 528.980469 494.878906 522.847656 488.746094 515.238281 488.746094 C 507.632812 488.746094 501.5 494.878906 501.5 502.488281 C 501.5 510.09375 507.632812 516.226562 515.238281 516.226562 Z M 515.238281 516.226562 " fill-opacity="1" fill-rule="nonzero"/><path fill="#ffffff" d="M 575.269531 454.546875 L 497.3125 454.546875 L 497.3125 439.566406 L 575.269531 439.566406 Z M 519.605469 462.09375 C 498.609375 462.09375 476.496094 480.195312 476.496094 502.488281 L 552.507812 502.488281 C 552.507812 475.125 547.4375 462.09375 519.605469 462.09375 Z M 595.96875 400.351562 C 590.308594 397.460938 585.707031 368.863281 568.902344 369.863281 C 552.035156 370.808594 544.785156 405.660156 542.835938 414.859375 L 568.960938 417.277344 C 570.90625 407.605469 576.6875 395.222656 576.6875 395.222656 C 576.6875 395.222656 580.046875 411.910156 588.539062 413.382812 C 593.492188 414.210938 602.867188 415.390625 609.886719 416.214844 L 611.597656 403.714844 C 605.875 403.066406 599.035156 401.886719 595.96875 400.351562 Z M 595.96875 400.351562 " fill-opacity="1" fill-rule="nonzero"/><g clip-path="url(#a5d6bb406a)"><path fill="#ffffff" d="M 593.667969 348.046875 C 593.667969 357.421875 586.0625 364.972656 576.746094 364.972656 C 567.367188 364.972656 559.820312 357.363281 559.820312 348.046875 C 559.820312 338.730469 567.367188 331.121094 576.746094 331.121094 C 586.0625 331.121094 593.667969 338.730469 593.667969 348.046875 Z M 620.796875 404.714844 C 620.796875 404.714844 616.667969 404.421875 611.65625 403.773438 L 609.945312 416.273438 C 615.015625 416.863281 618.847656 417.277344 618.847656 417.277344 C 623.683594 412.914062 624.390625 411.96875 620.796875 404.714844 Z M 620.796875 404.714844 " fill-opacity="1" fill-rule="nonzero"/></g><path fill="#ffffff" d="M 527.328125 439.566406 L 466.355469 439.566406 L 466.355469 380.480469 L 527.328125 380.480469 Z M 489.175781 457.964844 C 489.175781 457.140625 488.46875 456.433594 487.640625 456.433594 L 440.703125 456.433594 C 439.878906 456.433594 439.167969 457.140625 439.167969 457.964844 C 439.167969 458.792969 439.878906 459.5 440.703125 459.5 L 487.640625 459.5 C 488.527344 459.5 489.175781 458.789062 489.175781 457.964844 Z M 473.726562 470.527344 C 473.726562 469.699219 473.019531 468.992188 472.191406 468.992188 L 401.015625 468.992188 C 400.191406 468.992188 399.484375 469.699219 399.484375 470.527344 C 399.484375 471.351562 400.191406 472.058594 401.015625 472.058594 L 472.191406 472.058594 C 473.019531 472.058594 473.726562 471.410156 473.726562 470.527344 Z M 489.175781 492.34375 C 489.175781 491.519531 488.46875 490.8125 487.640625 490.8125 L 429.085938 490.8125 C 428.261719 490.8125 427.554688 491.519531 427.554688 492.34375 C 427.554688 493.171875 428.261719 493.878906 429.085938 493.878906 L 487.640625 493.878906 C 488.527344 493.878906 489.175781 493.171875 489.175781 492.34375 Z M 503.035156 483.027344 C 503.035156 482.203125 502.324219 481.496094 501.5 481.496094 L 448.898438 481.496094 C 448.074219 481.496094 447.367188 482.203125 447.367188 483.027344 C 447.367188 483.851562 448.074219 484.5625 448.898438 484.5625 L 501.5 484.5625 C 502.386719 484.5625 503.035156 483.851562 503.035156 483.027344 Z M 460.222656 425.53125 C 460.222656 424.707031 459.515625 424 458.6875 424 L 390.875 424 C 390.046875 424 389.339844 424.707031 389.339844 425.53125 C 389.339844 426.359375 390.046875 427.066406 390.875 427.066406 L 458.628906 427.066406 C 459.515625 427.066406 460.222656 426.359375 460.222656 425.53125 Z M 457.449219 411.96875 C 457.449219 411.144531 456.742188 410.4375 455.917969 410.4375 L 411.160156 410.4375 C 410.332031 410.4375 409.625 411.144531 409.625 411.96875 C 409.625 412.796875 410.332031 413.503906 411.160156 413.503906 L 455.917969 413.503906 C 456.742188 413.503906 457.449219 412.792969 457.449219 411.96875 Z M 457.449219 411.96875 " fill-opacity="1" fill-rule="nonzero"/><g clip-path="url(#0af2112797)"><path fill="#ffffff" d="M 604.285156 341.679688 L 559.820312 348.871094 C 559.820312 348.578125 559.761719 348.339844 559.761719 348.046875 C 559.761719 338.730469 567.367188 331.121094 576.746094 331.121094 C 583.878906 331.121094 589.953125 335.546875 592.429688 341.738281 L 603.988281 339.910156 Z M 542.835938 414.859375 C 540.890625 424.058594 543.308594 439.566406 552.507812 439.566406 L 575.269531 439.566406 C 588.832031 439.566406 592.726562 452.65625 586.886719 472.945312 L 601.867188 472.945312 C 609.121094 444.875 611.539062 436.617188 601.867188 431.78125 C 592.195312 426.949219 567.015625 426.949219 568.960938 417.277344 Z M 542.835938 414.859375 " fill-opacity="1" fill-rule="nonzero"/></g><g fill="#000000" fill-opacity="1"><g transform="translate(726.642212, 429.28187)"><g><path d="M 27.25 1.34375 C 22.4375 1.34375 18.082031 0.363281 14.1875 -1.59375 C 10.289062 -3.5625 7.195312 -6.476562 4.90625 -10.34375 C 2.625 -14.21875 1.484375 -18.957031 1.484375 -24.5625 C 1.484375 -28.832031 2.175781 -32.578125 3.5625 -35.796875 C 4.957031 -39.023438 6.859375 -41.726562 9.265625 -43.90625 C 11.671875 -46.09375 14.445312 -47.734375 17.59375 -48.828125 C 20.75 -49.921875 24.085938 -50.46875 27.609375 -50.46875 C 30.441406 -50.46875 33.046875 -50.144531 35.421875 -49.5 C 37.804688 -48.851562 40.039062 -47.960938 42.125 -46.828125 L 42.421875 -37.671875 L 41.6875 -37.671875 L 37.96875 -43.625 C 37.46875 -44.5625 36.921875 -45.414062 36.328125 -46.1875 C 35.734375 -46.957031 34.988281 -47.539062 34.09375 -47.9375 C 33.34375 -48.28125 32.609375 -48.539062 31.890625 -48.71875 C 31.171875 -48.894531 30.265625 -48.984375 29.171875 -48.984375 C 26.296875 -48.984375 23.679688 -48.210938 21.328125 -46.671875 C 18.972656 -45.128906 17.085938 -42.582031 15.671875 -39.03125 C 14.253906 -35.488281 13.546875 -30.640625 13.546875 -24.484375 C 13.546875 -18.378906 14.210938 -13.550781 15.546875 -10 C 16.890625 -6.457031 18.710938 -3.929688 21.015625 -2.421875 C 23.328125 -0.910156 25.925781 -0.15625 28.8125 -0.15625 C 30.394531 -0.15625 31.65625 -0.265625 32.59375 -0.484375 C 33.539062 -0.703125 34.488281 -1.035156 35.4375 -1.484375 C 36.375 -1.878906 37.085938 -2.460938 37.578125 -3.234375 C 38.078125 -4.003906 38.53125 -4.835938 38.9375 -5.734375 L 42.203125 -13.03125 L 42.953125 -13.03125 L 42.734375 -2.375 C 40.640625 -1.289062 38.300781 -0.398438 35.71875 0.296875 C 33.144531 0.992188 30.320312 1.34375 27.25 1.34375 Z M 27.25 1.34375 "/></g></g></g><g fill="#000000" fill-opacity="1"><g transform="translate(771.516753, 429.28187)"><g><path d="M 1.640625 0 L 1.640625 -0.75 L 3.203125 -1.265625 C 4.191406 -1.609375 4.832031 -2.066406 5.125 -2.640625 C 5.425781 -3.210938 5.578125 -4.019531 5.578125 -5.0625 L 5.578125 -44 C 5.578125 -44.988281 5.441406 -45.765625 5.171875 -46.328125 C 4.898438 -46.898438 4.289062 -47.363281 3.34375 -47.71875 L 1.640625 -48.390625 L 1.640625 -49.125 L 22.921875 -49.125 C 28.773438 -49.125 33.265625 -48.019531 36.390625 -45.8125 C 39.523438 -43.601562 41.09375 -40.539062 41.09375 -36.625 C 41.09375 -34.4375 40.269531 -32.25 38.625 -30.0625 C 36.988281 -27.882812 34.410156 -26.203125 30.890625 -25.015625 L 41.234375 -4.46875 C 41.679688 -3.625 42.191406 -2.941406 42.765625 -2.421875 C 43.335938 -1.898438 44.09375 -1.441406 45.03125 -1.046875 L 46 -0.671875 L 46 0 L 32.671875 0 L 21.65625 -23.453125 L 16.59375 -23.453125 L 16.59375 -5.0625 C 16.59375 -4.113281 16.742188 -3.34375 17.046875 -2.75 C 17.347656 -2.15625 17.96875 -1.710938 18.90625 -1.421875 L 20.6875 -0.75 L 20.6875 0 Z M 16.59375 -24.9375 L 20.171875 -24.9375 C 23.742188 -24.9375 26.320312 -25.890625 27.90625 -27.796875 C 29.5 -29.710938 30.296875 -32.554688 30.296875 -36.328125 C 30.296875 -40.148438 29.550781 -42.988281 28.0625 -44.84375 C 26.570312 -46.707031 24.066406 -47.640625 20.546875 -47.640625 L 16.59375 -47.640625 Z M 16.59375 -24.9375 "/></g></g></g><g fill="#000000" fill-opacity="1"><g transform="translate(818.251761, 429.28187)"><g><path d="M 0.59375 0 L 0.59375 -0.75 L 2.453125 -1.421875 C 3.441406 -1.816406 4.207031 -2.296875 4.75 -2.859375 C 5.300781 -3.429688 5.753906 -4.238281 6.109375 -5.28125 L 21.4375 -49.28125 L 27.765625 -49.28125 L 42.875 -4.984375 C 43.269531 -3.890625 43.710938 -3.054688 44.203125 -2.484375 C 44.703125 -1.921875 45.476562 -1.441406 46.53125 -1.046875 L 47.421875 -0.75 L 47.421875 0 L 28.515625 0 L 28.515625 -0.75 L 29.625 -1.109375 C 30.664062 -1.515625 31.296875 -2.078125 31.515625 -2.796875 C 31.742188 -3.515625 31.707031 -4.367188 31.40625 -5.359375 L 27.921875 -16.078125 L 11.390625 -16.078125 L 7.8125 -5.578125 C 7.46875 -4.484375 7.359375 -3.613281 7.484375 -2.96875 C 7.609375 -2.332031 8.191406 -1.816406 9.234375 -1.421875 L 10.875 -0.75 L 10.875 0 Z M 11.90625 -17.5625 L 27.46875 -17.5625 L 19.953125 -40.71875 Z M 11.90625 -17.5625 "/></g></g></g><g fill="#000000" fill-opacity="1"><g transform="translate(866.624, 429.28187)"><g><path d="M 21.140625 0.21875 L 5.203125 -44.140625 C 4.859375 -45.128906 4.398438 -45.910156 3.828125 -46.484375 C 3.265625 -47.054688 2.484375 -47.488281 1.484375 -47.78125 L -0.296875 -48.390625 L -0.296875 -49.125 L 21.140625 -49.125 L 21.140625 -48.390625 L 18.828125 -47.71875 C 17.691406 -47.414062 17.0625 -46.890625 16.9375 -46.140625 C 16.8125 -45.398438 16.921875 -44.484375 17.265625 -43.390625 L 28.28125 -10.71875 L 39.375 -43.46875 C 39.769531 -44.613281 39.957031 -45.554688 39.9375 -46.296875 C 39.914062 -47.046875 39.332031 -47.566406 38.1875 -47.859375 L 36.25 -48.390625 L 36.25 -49.125 L 46.671875 -49.125 L 46.671875 -48.390625 L 44.65625 -47.78125 C 43.71875 -47.539062 43.050781 -47.109375 42.65625 -46.484375 C 42.257812 -45.867188 41.882812 -45.0625 41.53125 -44.0625 L 26.65625 0.21875 Z M 21.140625 0.21875 "/></g></g></g><g fill="#000000" fill-opacity="1"><g transform="translate(913.656703, 429.28187)"><g><path d="M 1.640625 0 L 1.640625 -0.75 L 3.34375 -1.421875 C 4.1875 -1.765625 4.769531 -2.21875 5.09375 -2.78125 C 5.414062 -3.351562 5.578125 -4.140625 5.578125 -5.140625 L 5.578125 -44 C 5.578125 -44.988281 5.441406 -45.765625 5.171875 -46.328125 C 4.898438 -46.898438 4.289062 -47.363281 3.34375 -47.71875 L 1.640625 -48.390625 L 1.640625 -49.125 L 37.296875 -49.125 L 37.734375 -37.671875 L 37 -37.671875 L 33.796875 -44.65625 C 33.347656 -45.550781 32.875 -46.269531 32.375 -46.8125 C 31.882812 -47.363281 31.140625 -47.640625 30.140625 -47.640625 L 16.75 -47.640625 L 16.75 -26.125 L 24.71875 -26.125 C 25.707031 -26.125 26.460938 -26.382812 26.984375 -26.90625 C 27.503906 -27.425781 27.960938 -28.132812 28.359375 -29.03125 L 29.84375 -32.015625 L 30.59375 -32.015625 L 30.59375 -18.609375 L 29.84375 -18.609375 L 28.359375 -21.734375 C 27.910156 -22.628906 27.4375 -23.335938 26.9375 -23.859375 C 26.445312 -24.378906 25.707031 -24.640625 24.71875 -24.640625 L 16.75 -24.640625 L 16.75 -1.484375 L 31.78125 -1.484375 C 32.78125 -1.484375 33.550781 -1.742188 34.09375 -2.265625 C 34.632812 -2.785156 35.082031 -3.519531 35.4375 -4.46875 L 38.484375 -11.46875 L 39.234375 -11.46875 L 38.78125 0 Z M 1.640625 0 "/></g></g></g><g fill="#000000" fill-opacity="1"><g transform="translate(749.27815, 466.708798)"><g><path d="M 1.5625 0 L 1.5625 -14.75 L 10.53125 -14.75 L 10.53125 -13.296875 L 3.328125 -13.296875 L 3.328125 -8.109375 L 9.46875 -8.109375 L 9.46875 -6.6875 L 3.328125 -6.6875 L 3.328125 0 Z M 1.5625 0 "/></g></g></g><g fill="#000000" fill-opacity="1"><g transform="translate(763.455293, 466.708798)"><g><path d="M 0.625 0 L 6.078125 -14.75 L 7.953125 -14.75 L 13.359375 0 L 11.484375 0 L 10.140625 -3.796875 L 3.859375 -3.796875 L 2.484375 0 Z M 4.390625 -5.234375 L 9.609375 -5.234375 L 7 -12.515625 Z M 4.390625 -5.234375 "/></g></g></g><g fill="#000000" fill-opacity="1"><g transform="translate(780.37024, 466.708798)"><g><path d="M 6.265625 0.25 C 5.179688 0.25 4.238281 0.0546875 3.4375 -0.328125 C 2.632812 -0.722656 2.015625 -1.269531 1.578125 -1.96875 C 1.140625 -2.675781 0.921875 -3.492188 0.921875 -4.421875 L 2.78125 -4.421875 C 2.78125 -3.847656 2.910156 -3.316406 3.171875 -2.828125 C 3.441406 -2.347656 3.832031 -1.960938 4.34375 -1.671875 C 4.863281 -1.390625 5.503906 -1.25 6.265625 -1.25 C 7.253906 -1.25 8.023438 -1.484375 8.578125 -1.953125 C 9.128906 -2.429688 9.40625 -3.03125 9.40625 -3.75 C 9.40625 -4.34375 9.273438 -4.816406 9.015625 -5.171875 C 8.765625 -5.535156 8.425781 -5.828125 8 -6.046875 C 7.570312 -6.273438 7.078125 -6.472656 6.515625 -6.640625 C 5.960938 -6.804688 5.382812 -6.992188 4.78125 -7.203125 C 3.644531 -7.597656 2.800781 -8.085938 2.25 -8.671875 C 1.707031 -9.253906 1.4375 -10.015625 1.4375 -10.953125 C 1.414062 -11.742188 1.59375 -12.441406 1.96875 -13.046875 C 2.351562 -13.660156 2.894531 -14.140625 3.59375 -14.484375 C 4.289062 -14.828125 5.117188 -15 6.078125 -15 C 7.015625 -15 7.828125 -14.820312 8.515625 -14.46875 C 9.210938 -14.125 9.753906 -13.640625 10.140625 -13.015625 C 10.535156 -12.398438 10.738281 -11.703125 10.75 -10.921875 L 8.890625 -10.921875 C 8.890625 -11.328125 8.785156 -11.726562 8.578125 -12.125 C 8.367188 -12.53125 8.050781 -12.859375 7.625 -13.109375 C 7.195312 -13.359375 6.65625 -13.484375 6 -13.484375 C 5.207031 -13.503906 4.550781 -13.300781 4.03125 -12.875 C 3.519531 -12.457031 3.265625 -11.875 3.265625 -11.125 C 3.265625 -10.5 3.441406 -10.015625 3.796875 -9.671875 C 4.160156 -9.335938 4.664062 -9.0625 5.3125 -8.84375 C 5.957031 -8.625 6.703125 -8.375 7.546875 -8.09375 C 8.242188 -7.84375 8.875 -7.546875 9.4375 -7.203125 C 10 -6.867188 10.4375 -6.429688 10.75 -5.890625 C 11.070312 -5.359375 11.234375 -4.679688 11.234375 -3.859375 C 11.234375 -3.148438 11.050781 -2.484375 10.6875 -1.859375 C 10.320312 -1.234375 9.769531 -0.722656 9.03125 -0.328125 C 8.289062 0.0546875 7.367188 0.25 6.265625 0.25 Z M 6.265625 0.25 "/></g></g></g><g fill="#000000" fill-opacity="1"><g transform="translate(795.474032, 466.708798)"><g><path d="M 5.015625 0 L 5.015625 -13.296875 L 0.609375 -13.296875 L 0.609375 -14.75 L 11.1875 -14.75 L 11.1875 -13.296875 L 6.78125 -13.296875 L 6.78125 0 Z M 5.015625 0 "/></g></g></g><g fill="#000000" fill-opacity="1"><g transform="translate(810.198757, 466.708798)"><g/></g></g><g fill="#000000" fill-opacity="1"><g transform="translate(818.710771, 466.708798)"><g><path d="M 1.5625 0 L 1.5625 -14.75 L 6.09375 -14.75 C 8.6875 -14.75 10.597656 -14.085938 11.828125 -12.765625 C 13.066406 -11.453125 13.6875 -9.640625 13.6875 -7.328125 C 13.6875 -5.066406 13.066406 -3.28125 11.828125 -1.96875 C 10.597656 -0.65625 8.6875 0 6.09375 0 Z M 3.328125 -1.46875 L 6.046875 -1.46875 C 7.484375 -1.46875 8.625 -1.703125 9.46875 -2.171875 C 10.320312 -2.648438 10.929688 -3.328125 11.296875 -4.203125 C 11.660156 -5.078125 11.84375 -6.117188 11.84375 -7.328125 C 11.84375 -8.566406 11.660156 -9.628906 11.296875 -10.515625 C 10.929688 -11.398438 10.320312 -12.082031 9.46875 -12.5625 C 8.625 -13.039062 7.484375 -13.28125 6.046875 -13.28125 L 3.328125 -13.28125 Z M 3.328125 -1.46875 "/></g></g></g><g fill="#000000" fill-opacity="1"><g transform="translate(836.299641, 466.708798)"><g><path d="M 1.5625 0 L 1.5625 -14.75 L 10.6875 -14.75 L 10.6875 -13.296875 L 3.328125 -13.296875 L 3.328125 -8.15625 L 10.046875 -8.15625 L 10.046875 -6.71875 L 3.328125 -6.71875 L 3.328125 -1.453125 L 10.6875 -1.453125 L 10.6875 0 Z M 1.5625 0 "/></g></g></g><g fill="#000000" fill-opacity="1"><g transform="translate(851.108584, 466.708798)"><g><path d="M 1.5625 0 L 1.5625 -14.75 L 3.328125 -14.75 L 3.328125 -1.40625 L 10.203125 -1.40625 L 10.203125 0 Z M 1.5625 0 "/></g></g></g><g fill="#000000" fill-opacity="1"><g transform="translate(865.0962, 466.708798)"><g><path d="M 1.5625 0 L 1.5625 -14.75 L 3.328125 -14.75 L 3.328125 0 Z M 1.5625 0 "/></g></g></g><g fill="#000000" fill-opacity="1"><g transform="translate(872.913227, 466.708798)"><g><path d="M 6 0 L 0.46875 -14.75 L 2.375 -14.75 L 7.046875 -1.875 L 11.734375 -14.75 L 13.609375 -14.75 L 8.078125 0 Z M 6 0 "/></g></g></g><g fill="#000000" fill-opacity="1"><g transform="translate(889.912413, 466.708798)"><g><path d="M 1.5625 0 L 1.5625 -14.75 L 10.6875 -14.75 L 10.6875 -13.296875 L 3.328125 -13.296875 L 3.328125 -8.15625 L 10.046875 -8.15625 L 10.046875 -6.71875 L 3.328125 -6.71875 L 3.328125 -1.453125 L 10.6875 -1.453125 L 10.6875 0 Z M 1.5625 0 "/></g></g></g><g fill="#000000" fill-opacity="1"><g transform="translate(904.721351, 466.708798)"><g><path d="M 1.5625 0 L 1.5625 -14.75 L 6.328125 -14.75 C 7.472656 -14.75 8.410156 -14.554688 9.140625 -14.171875 C 9.878906 -13.796875 10.421875 -13.28125 10.765625 -12.625 C 11.117188 -11.96875 11.296875 -11.238281 11.296875 -10.4375 C 11.296875 -9.507812 11.046875 -8.671875 10.546875 -7.921875 C 10.046875 -7.179688 9.269531 -6.65625 8.21875 -6.34375 L 11.453125 0 L 9.359375 0 L 6.359375 -6.09375 L 3.328125 -6.09375 L 3.328125 0 Z M 3.328125 -7.484375 L 6.203125 -7.484375 C 7.335938 -7.484375 8.164062 -7.753906 8.6875 -8.296875 C 9.207031 -8.847656 9.46875 -9.550781 9.46875 -10.40625 C 9.46875 -11.28125 9.207031 -11.972656 8.6875 -12.484375 C 8.175781 -13.003906 7.335938 -13.265625 6.171875 -13.265625 L 3.328125 -13.265625 Z M 3.328125 -7.484375 "/></g></g></g><g fill="#000000" fill-opacity="1"><g transform="translate(920.141026, 466.708798)"><g><path d="M 5.234375 0 L 5.234375 -5.609375 L 0.421875 -14.75 L 2.421875 -14.75 L 6.109375 -7.296875 L 9.796875 -14.75 L 11.78125 -14.75 L 7 -5.609375 L 7 0 Z M 5.234375 0 "/></g></g></g></svg>