<svg xmlns="http://www.w3.org/2000/svg" xmlns:xlink="http://www.w3.org/1999/xlink" width="500" zoomAndPan="magnify" viewBox="0 0 375 374.999991" height="500" preserveAspectRatio="xMidYMid meet" version="1.0"><defs><g/><clipPath id="dcaa174381"><path d="M 131.621094 105.496094 L 243.378906 105.496094 L 243.378906 217.253906 L 131.621094 217.253906 Z M 131.621094 105.496094 " clip-rule="nonzero"/></clipPath><clipPath id="0d9b09d391"><path d="M 187.5 105.496094 C 156.640625 105.496094 131.621094 130.515625 131.621094 161.375 C 131.621094 192.234375 156.640625 217.253906 187.5 217.253906 C 218.359375 217.253906 243.378906 192.234375 243.378906 161.375 C 243.378906 130.515625 218.359375 105.496094 187.5 105.496094 Z M 187.5 105.496094 " clip-rule="nonzero"/></clipPath><clipPath id="427b651ef6"><path d="M 152 195 L 243.703125 195 L 243.703125 221.472656 L 152 221.472656 Z M 152 195 " clip-rule="nonzero"/></clipPath><clipPath id="7fdc98dae3"><path d="M 185 129.222656 L 215 129.222656 L 215 170 L 185 170 Z M 185 129.222656 " clip-rule="nonzero"/></clipPath><clipPath id="93af56e74f"><path d="M 106.453125 152 L 171 152 L 171 205 L 106.453125 205 Z M 106.453125 152 " clip-rule="nonzero"/></clipPath><clipPath id="4cc4102369"><path d="M 177 129.222656 L 209 129.222656 L 209 195 L 177 195 Z M 177 129.222656 " clip-rule="nonzero"/></clipPath></defs><rect x="-37.5" width="450" fill="#ffffff" y="-37.499999" height="449.999989" fill-opacity="1"/><rect x="-37.5" width="450" fill="#a70000" y="-37.499999" height="449.999989" fill-opacity="1"/><g clip-path="url(#dcaa174381)"><g clip-path="url(#0d9b09d391)"><path fill="#ffffff" d="M 131.621094 105.496094 L 243.378906 105.496094 L 243.378906 217.253906 L 131.621094 217.253906 Z M 131.621094 105.496094 " fill-opacity="1" fill-rule="nonzero"/></g></g><g clip-path="url(#427b651ef6)"><path fill="#a70000" d="M 217.609375 208.554688 C 217.609375 201.511719 223.316406 195.78125 230.386719 195.78125 C 237.429688 195.78125 243.160156 201.484375 243.160156 208.554688 C 243.160156 215.597656 237.457031 221.332031 230.386719 221.332031 C 223.34375 221.332031 217.609375 215.597656 217.609375 208.554688 Z M 164.949219 221.332031 C 171.992188 221.332031 177.722656 215.625 177.722656 208.554688 C 177.722656 201.511719 172.019531 195.78125 164.949219 195.78125 C 157.878906 195.78125 152.171875 201.484375 152.171875 208.554688 C 152.171875 215.597656 157.90625 221.332031 164.949219 221.332031 Z M 164.949219 221.332031 " fill-opacity="1" fill-rule="nonzero"/></g><path fill="#a70000" d="M 204.257812 194.878906 C 204.257812 194.878906 203.058594 198.019531 206.226562 198.019531 C 213.378906 198.019531 213.324219 202.195312 213.324219 202.195312 L 197.898438 202.195312 L 199.808594 194.878906 Z M 204.257812 194.878906 " fill-opacity="1" fill-rule="nonzero"/><path fill="#a70000" d="M 214.277344 211.09375 C 211.546875 203.941406 214.304688 195.699219 221.128906 191.710938 C 227.957031 187.726562 236.5 189.390625 241.386719 195.261719 Z M 214.277344 211.09375 " fill-opacity="1" fill-rule="nonzero"/><path fill="#a70000" d="M 188.480469 186.359375 C 182.664062 196.679688 190.28125 202.195312 190.28125 202.195312 L 206.417969 202.195312 C 208.4375 201.429688 212.914062 196.898438 215.835938 190.183594 C 218.753906 183.46875 208.65625 162.390625 208.65625 162.390625 C 212.914062 157.015625 224.023438 159.472656 224.023438 159.472656 L 224.023438 170.910156 L 217.609375 169.109375 L 226.808594 187.945312 L 209.773438 208.554688 L 150.152344 208.554688 L 162.492188 186.359375 Z M 188.480469 186.359375 " fill-opacity="1" fill-rule="nonzero"/><path fill="#a70000" d="M 224.023438 208.554688 C 224.023438 205.035156 226.863281 202.195312 230.386719 202.195312 C 233.90625 202.195312 236.746094 205.035156 236.746094 208.554688 C 236.746094 212.078125 233.90625 214.917969 230.386719 214.917969 C 226.863281 214.917969 224.023438 212.078125 224.023438 208.554688 Z M 164.949219 214.917969 C 168.46875 214.917969 171.308594 212.078125 171.308594 208.554688 C 171.308594 205.035156 168.46875 202.195312 164.949219 202.195312 C 161.425781 202.195312 158.585938 205.035156 158.585938 208.554688 C 158.585938 212.078125 161.425781 214.917969 164.949219 214.917969 Z M 164.949219 214.917969 " fill-opacity="1" fill-rule="nonzero"/><path fill="#a70000" d="M 192.738281 186.359375 L 156.648438 186.359375 L 156.648438 179.425781 L 192.738281 179.425781 Z M 166.96875 189.855469 C 157.25 189.855469 147.011719 198.238281 147.011719 208.554688 L 182.203125 208.554688 C 182.203125 195.886719 179.851562 189.855469 166.96875 189.855469 Z M 202.320312 161.273438 C 199.699219 159.933594 197.570312 146.695312 189.789062 147.160156 C 181.984375 147.59375 178.625 163.730469 177.722656 167.988281 L 189.816406 169.109375 C 190.71875 164.628906 193.394531 158.898438 193.394531 158.898438 C 193.394531 158.898438 194.949219 166.625 198.882812 167.304688 C 201.175781 167.6875 205.515625 168.234375 208.765625 168.617188 L 209.554688 162.828125 C 206.90625 162.527344 203.742188 161.980469 202.320312 161.273438 Z M 202.320312 161.273438 " fill-opacity="1" fill-rule="nonzero"/><g clip-path="url(#7fdc98dae3)"><path fill="#a70000" d="M 201.257812 137.058594 C 201.257812 141.398438 197.734375 144.894531 193.421875 144.894531 C 189.082031 144.894531 185.585938 141.371094 185.585938 137.058594 C 185.585938 132.746094 189.082031 129.222656 193.421875 129.222656 C 197.734375 129.222656 201.257812 132.746094 201.257812 137.058594 Z M 213.8125 163.292969 C 213.8125 163.292969 211.902344 163.15625 209.582031 162.855469 L 208.792969 168.644531 C 211.140625 168.917969 212.914062 169.109375 212.914062 169.109375 C 215.152344 167.085938 215.480469 166.652344 213.8125 163.292969 Z M 213.8125 163.292969 " fill-opacity="1" fill-rule="nonzero"/></g><g clip-path="url(#93af56e74f)"><path fill="#a70000" d="M 170.542969 179.425781 L 142.316406 179.425781 L 142.316406 152.074219 L 170.542969 152.074219 Z M 152.882812 187.945312 C 152.882812 187.5625 152.554688 187.234375 152.171875 187.234375 L 130.441406 187.234375 C 130.058594 187.234375 129.730469 187.5625 129.730469 187.945312 C 129.730469 188.328125 130.058594 188.652344 130.441406 188.652344 L 152.171875 188.652344 C 152.582031 188.652344 152.882812 188.328125 152.882812 187.945312 Z M 145.730469 193.757812 C 145.730469 193.378906 145.402344 193.050781 145.019531 193.050781 L 112.066406 193.050781 C 111.6875 193.050781 111.359375 193.378906 111.359375 193.757812 C 111.359375 194.140625 111.6875 194.46875 112.066406 194.46875 L 145.019531 194.46875 C 145.402344 194.46875 145.730469 194.167969 145.730469 193.757812 Z M 152.882812 203.859375 C 152.882812 203.476562 152.554688 203.152344 152.171875 203.152344 L 125.0625 203.152344 C 124.679688 203.152344 124.351562 203.476562 124.351562 203.859375 C 124.351562 204.242188 124.679688 204.570312 125.0625 204.570312 L 152.171875 204.570312 C 152.582031 204.570312 152.882812 204.242188 152.882812 203.859375 Z M 159.296875 199.546875 C 159.296875 199.164062 158.96875 198.835938 158.585938 198.835938 L 134.234375 198.835938 C 133.851562 198.835938 133.527344 199.164062 133.527344 199.546875 C 133.527344 199.929688 133.851562 200.257812 134.234375 200.257812 L 158.585938 200.257812 C 158.996094 200.257812 159.296875 199.929688 159.296875 199.546875 Z M 139.476562 172.929688 C 139.476562 172.546875 139.148438 172.21875 138.765625 172.21875 L 107.371094 172.21875 C 106.992188 172.21875 106.664062 172.546875 106.664062 172.929688 C 106.664062 173.3125 106.992188 173.640625 107.371094 173.640625 L 138.738281 173.640625 C 139.148438 173.640625 139.476562 173.3125 139.476562 172.929688 Z M 138.195312 166.652344 C 138.195312 166.269531 137.867188 165.941406 137.484375 165.941406 L 116.765625 165.941406 C 116.382812 165.941406 116.054688 166.269531 116.054688 166.652344 C 116.054688 167.03125 116.382812 167.359375 116.765625 167.359375 L 137.484375 167.359375 C 137.867188 167.359375 138.195312 167.03125 138.195312 166.652344 Z M 138.195312 166.652344 " fill-opacity="1" fill-rule="nonzero"/></g><g clip-path="url(#4cc4102369)"><path fill="#a70000" d="M 206.171875 134.109375 L 185.585938 137.441406 C 185.585938 137.304688 185.558594 137.195312 185.558594 137.058594 C 185.558594 132.746094 189.082031 129.222656 193.421875 129.222656 C 196.726562 129.222656 199.535156 131.269531 200.683594 134.136719 L 206.035156 133.289062 Z M 177.722656 167.988281 C 176.824219 172.246094 177.941406 179.425781 182.203125 179.425781 L 192.738281 179.425781 C 199.019531 179.425781 200.820312 185.488281 198.117188 194.878906 L 205.050781 194.878906 C 208.410156 181.882812 209.527344 178.0625 205.050781 175.824219 C 200.574219 173.585938 188.917969 173.585938 189.816406 169.109375 Z M 177.722656 167.988281 " fill-opacity="1" fill-rule="nonzero"/></g><g fill="#ffffff" fill-opacity="1"><g transform="translate(134.641073, 248.556634)"><g><path d="M 12.609375 0.625 C 10.378906 0.625 8.363281 0.171875 6.5625 -0.734375 C 4.757812 -1.648438 3.328125 -3.003906 2.265625 -4.796875 C 1.210938 -6.585938 0.6875 -8.78125 0.6875 -11.375 C 0.6875 -13.351562 1.007812 -15.085938 1.65625 -16.578125 C 2.300781 -18.066406 3.179688 -19.316406 4.296875 -20.328125 C 5.410156 -21.347656 6.695312 -22.109375 8.15625 -22.609375 C 9.613281 -23.117188 11.15625 -23.375 12.78125 -23.375 C 14.09375 -23.375 15.300781 -23.222656 16.40625 -22.921875 C 17.507812 -22.617188 18.546875 -22.207031 19.515625 -21.6875 L 19.640625 -17.4375 L 19.296875 -17.4375 L 17.578125 -20.203125 C 17.347656 -20.640625 17.09375 -21.035156 16.8125 -21.390625 C 16.539062 -21.742188 16.195312 -22.015625 15.78125 -22.203125 C 15.4375 -22.359375 15.097656 -22.476562 14.765625 -22.5625 C 14.429688 -22.644531 14.015625 -22.6875 13.515625 -22.6875 C 12.179688 -22.6875 10.96875 -22.328125 9.875 -21.609375 C 8.78125 -20.898438 7.90625 -19.722656 7.25 -18.078125 C 6.59375 -16.429688 6.265625 -14.1875 6.265625 -11.34375 C 6.265625 -8.507812 6.578125 -6.269531 7.203125 -4.625 C 7.828125 -2.988281 8.671875 -1.816406 9.734375 -1.109375 C 10.804688 -0.410156 12.007812 -0.0625 13.34375 -0.0625 C 14.070312 -0.0625 14.65625 -0.113281 15.09375 -0.21875 C 15.53125 -0.320312 15.96875 -0.476562 16.40625 -0.6875 C 16.84375 -0.875 17.175781 -1.144531 17.40625 -1.5 C 17.632812 -1.851562 17.84375 -2.238281 18.03125 -2.65625 L 19.546875 -6.03125 L 19.890625 -6.03125 L 19.78125 -1.109375 C 18.820312 -0.597656 17.742188 -0.179688 16.546875 0.140625 C 15.347656 0.460938 14.035156 0.625 12.609375 0.625 Z M 12.609375 0.625 "/></g></g></g><g fill="#ffffff" fill-opacity="1"><g transform="translate(155.416321, 248.556634)"><g><path d="M 0.765625 0 L 0.765625 -0.34375 L 1.484375 -0.59375 C 1.941406 -0.75 2.238281 -0.957031 2.375 -1.21875 C 2.507812 -1.488281 2.578125 -1.863281 2.578125 -2.34375 L 2.578125 -20.375 C 2.578125 -20.832031 2.515625 -21.191406 2.390625 -21.453125 C 2.265625 -21.722656 1.984375 -21.9375 1.546875 -22.09375 L 0.765625 -22.40625 L 0.765625 -22.75 L 10.609375 -22.75 C 13.328125 -22.75 15.410156 -22.238281 16.859375 -21.21875 C 18.304688 -20.195312 19.03125 -18.773438 19.03125 -16.953125 C 19.03125 -15.941406 18.648438 -14.929688 17.890625 -13.921875 C 17.128906 -12.910156 15.929688 -12.128906 14.296875 -11.578125 L 19.09375 -2.0625 C 19.300781 -1.675781 19.535156 -1.363281 19.796875 -1.125 C 20.066406 -0.882812 20.421875 -0.671875 20.859375 -0.484375 L 21.296875 -0.3125 L 21.296875 0 L 15.125 0 L 10.03125 -10.859375 L 7.6875 -10.859375 L 7.6875 -2.34375 C 7.6875 -1.90625 7.753906 -1.546875 7.890625 -1.265625 C 8.023438 -0.992188 8.3125 -0.789062 8.75 -0.65625 L 9.578125 -0.34375 L 9.578125 0 Z M 7.6875 -11.546875 L 9.34375 -11.546875 C 11 -11.546875 12.191406 -11.988281 12.921875 -12.875 C 13.660156 -13.757812 14.03125 -15.078125 14.03125 -16.828125 C 14.03125 -18.585938 13.679688 -19.898438 12.984375 -20.765625 C 12.296875 -21.628906 11.140625 -22.0625 9.515625 -22.0625 L 7.6875 -22.0625 Z M 7.6875 -11.546875 "/></g></g></g><g fill="#ffffff" fill-opacity="1"><g transform="translate(177.052897, 248.556634)"><g><path d="M 0.28125 0 L 0.28125 -0.34375 L 1.140625 -0.65625 C 1.597656 -0.84375 1.953125 -1.066406 2.203125 -1.328125 C 2.453125 -1.585938 2.660156 -1.960938 2.828125 -2.453125 L 9.921875 -22.8125 L 12.859375 -22.8125 L 19.859375 -2.3125 C 20.035156 -1.800781 20.238281 -1.414062 20.46875 -1.15625 C 20.695312 -0.894531 21.054688 -0.671875 21.546875 -0.484375 L 21.953125 -0.34375 L 21.953125 0 L 13.203125 0 L 13.203125 -0.34375 L 13.71875 -0.515625 C 14.195312 -0.703125 14.488281 -0.960938 14.59375 -1.296875 C 14.695312 -1.628906 14.679688 -2.023438 14.546875 -2.484375 L 12.921875 -7.4375 L 5.28125 -7.4375 L 3.625 -2.578125 C 3.457031 -2.078125 3.398438 -1.675781 3.453125 -1.375 C 3.515625 -1.082031 3.789062 -0.84375 4.28125 -0.65625 L 5.03125 -0.34375 L 5.03125 0 Z M 5.515625 -8.140625 L 12.71875 -8.140625 L 9.234375 -18.859375 Z M 5.515625 -8.140625 "/></g></g></g><g fill="#ffffff" fill-opacity="1"><g transform="translate(199.44745, 248.556634)"><g><path d="M 9.796875 0.109375 L 2.40625 -20.4375 C 2.25 -20.894531 2.035156 -21.253906 1.765625 -21.515625 C 1.503906 -21.785156 1.144531 -21.988281 0.6875 -22.125 L -0.140625 -22.40625 L -0.140625 -22.75 L 9.796875 -22.75 L 9.796875 -22.40625 L 8.71875 -22.09375 C 8.1875 -21.957031 7.890625 -21.71875 7.828125 -21.375 C 7.773438 -21.03125 7.832031 -20.601562 8 -20.09375 L 13.09375 -4.96875 L 18.234375 -20.125 C 18.421875 -20.65625 18.503906 -21.09375 18.484375 -21.4375 C 18.472656 -21.78125 18.207031 -22.019531 17.6875 -22.15625 L 16.78125 -22.40625 L 16.78125 -22.75 L 21.609375 -22.75 L 21.609375 -22.40625 L 20.6875 -22.125 C 20.25 -22.007812 19.9375 -21.804688 19.75 -21.515625 C 19.5625 -21.234375 19.390625 -20.863281 19.234375 -20.40625 L 12.34375 0.109375 Z M 9.796875 0.109375 "/></g></g></g><g fill="#ffffff" fill-opacity="1"><g transform="translate(221.221848, 248.556634)"><g><path d="M 0.765625 0 L 0.765625 -0.34375 L 1.546875 -0.65625 C 1.941406 -0.8125 2.210938 -1.019531 2.359375 -1.28125 C 2.503906 -1.550781 2.578125 -1.914062 2.578125 -2.375 L 2.578125 -20.375 C 2.578125 -20.832031 2.515625 -21.191406 2.390625 -21.453125 C 2.265625 -21.722656 1.984375 -21.9375 1.546875 -22.09375 L 0.765625 -22.40625 L 0.765625 -22.75 L 17.265625 -22.75 L 17.46875 -17.4375 L 17.125 -17.4375 L 15.65625 -20.6875 C 15.445312 -21.09375 15.226562 -21.421875 15 -21.671875 C 14.769531 -21.929688 14.421875 -22.0625 13.953125 -22.0625 L 7.75 -22.0625 L 7.75 -12.09375 L 11.4375 -12.09375 C 11.90625 -12.09375 12.257812 -12.210938 12.5 -12.453125 C 12.738281 -12.703125 12.945312 -13.03125 13.125 -13.4375 L 13.828125 -14.828125 L 14.171875 -14.828125 L 14.171875 -8.609375 L 13.828125 -8.609375 L 13.125 -10.0625 C 12.925781 -10.476562 12.710938 -10.804688 12.484375 -11.046875 C 12.253906 -11.285156 11.90625 -11.40625 11.4375 -11.40625 L 7.75 -11.40625 L 7.75 -0.6875 L 14.71875 -0.6875 C 15.175781 -0.6875 15.53125 -0.804688 15.78125 -1.046875 C 16.039062 -1.285156 16.25 -1.625 16.40625 -2.0625 L 17.8125 -5.3125 L 18.171875 -5.3125 L 17.953125 0 Z M 0.765625 0 "/></g></g></g><g fill="#ffffff" fill-opacity="1"><g transform="translate(145.120675, 265.883918)"><g><path d="M 0.71875 0 L 0.71875 -6.828125 L 4.875 -6.828125 L 4.875 -6.15625 L 1.546875 -6.15625 L 1.546875 -3.75 L 4.375 -3.75 L 4.375 -3.09375 L 1.546875 -3.09375 L 1.546875 0 Z M 0.71875 0 "/></g></g></g><g fill="#ffffff" fill-opacity="1"><g transform="translate(151.684166, 265.883918)"><g><path d="M 0.296875 0 L 2.8125 -6.828125 L 3.671875 -6.828125 L 6.1875 0 L 5.3125 0 L 4.6875 -1.75 L 1.78125 -1.75 L 1.15625 0 Z M 2.03125 -2.421875 L 4.453125 -2.421875 L 3.234375 -5.796875 Z M 2.03125 -2.421875 "/></g></g></g><g fill="#ffffff" fill-opacity="1"><g transform="translate(159.51516, 265.883918)"><g><path d="M 2.890625 0.109375 C 2.390625 0.109375 1.953125 0.0195312 1.578125 -0.15625 C 1.210938 -0.332031 0.925781 -0.582031 0.71875 -0.90625 C 0.519531 -1.238281 0.421875 -1.617188 0.421875 -2.046875 L 1.28125 -2.046875 C 1.28125 -1.773438 1.34375 -1.523438 1.46875 -1.296875 C 1.59375 -1.078125 1.773438 -0.898438 2.015625 -0.765625 C 2.253906 -0.640625 2.546875 -0.578125 2.890625 -0.578125 C 3.359375 -0.578125 3.71875 -0.6875 3.96875 -0.90625 C 4.21875 -1.125 4.34375 -1.398438 4.34375 -1.734375 C 4.34375 -2.003906 4.285156 -2.222656 4.171875 -2.390625 C 4.054688 -2.554688 3.898438 -2.691406 3.703125 -2.796875 C 3.503906 -2.898438 3.273438 -2.988281 3.015625 -3.0625 C 2.753906 -3.144531 2.488281 -3.234375 2.21875 -3.328125 C 1.6875 -3.515625 1.289062 -3.742188 1.03125 -4.015625 C 0.78125 -4.285156 0.65625 -4.632812 0.65625 -5.0625 C 0.65625 -5.425781 0.742188 -5.75 0.921875 -6.03125 C 1.097656 -6.320312 1.34375 -6.546875 1.65625 -6.703125 C 1.976562 -6.859375 2.363281 -6.9375 2.8125 -6.9375 C 3.25 -6.9375 3.625 -6.851562 3.9375 -6.6875 C 4.257812 -6.53125 4.507812 -6.304688 4.6875 -6.015625 C 4.875 -5.734375 4.96875 -5.410156 4.96875 -5.046875 L 4.109375 -5.046875 C 4.109375 -5.234375 4.0625 -5.421875 3.96875 -5.609375 C 3.875 -5.796875 3.726562 -5.945312 3.53125 -6.0625 C 3.332031 -6.175781 3.082031 -6.234375 2.78125 -6.234375 C 2.40625 -6.242188 2.097656 -6.148438 1.859375 -5.953125 C 1.628906 -5.765625 1.515625 -5.492188 1.515625 -5.140625 C 1.515625 -4.847656 1.597656 -4.625 1.765625 -4.46875 C 1.929688 -4.3125 2.160156 -4.179688 2.453125 -4.078125 C 2.753906 -3.984375 3.097656 -3.875 3.484375 -3.75 C 3.816406 -3.625 4.113281 -3.484375 4.375 -3.328125 C 4.632812 -3.171875 4.835938 -2.96875 4.984375 -2.71875 C 5.128906 -2.476562 5.203125 -2.164062 5.203125 -1.78125 C 5.203125 -1.457031 5.113281 -1.148438 4.9375 -0.859375 C 4.769531 -0.566406 4.515625 -0.332031 4.171875 -0.15625 C 3.835938 0.0195312 3.410156 0.109375 2.890625 0.109375 Z M 2.890625 0.109375 "/></g></g></g><g fill="#ffffff" fill-opacity="1"><g transform="translate(166.507655, 265.883918)"><g><path d="M 2.328125 0 L 2.328125 -6.15625 L 0.28125 -6.15625 L 0.28125 -6.828125 L 5.171875 -6.828125 L 5.171875 -6.15625 L 3.140625 -6.15625 L 3.140625 0 Z M 2.328125 0 "/></g></g></g><g fill="#ffffff" fill-opacity="1"><g transform="translate(173.324657, 265.883918)"><g/></g></g><g fill="#ffffff" fill-opacity="1"><g transform="translate(177.265404, 265.883918)"><g><path d="M 0.71875 0 L 0.71875 -6.828125 L 2.8125 -6.828125 C 4.019531 -6.828125 4.90625 -6.519531 5.46875 -5.90625 C 6.039062 -5.289062 6.328125 -4.453125 6.328125 -3.390625 C 6.328125 -2.347656 6.039062 -1.519531 5.46875 -0.90625 C 4.90625 -0.300781 4.019531 0 2.8125 0 Z M 1.546875 -0.6875 L 2.796875 -0.6875 C 3.460938 -0.6875 3.988281 -0.789062 4.375 -1 C 4.769531 -1.21875 5.050781 -1.53125 5.21875 -1.9375 C 5.394531 -2.34375 5.484375 -2.828125 5.484375 -3.390625 C 5.484375 -3.960938 5.394531 -4.453125 5.21875 -4.859375 C 5.050781 -5.273438 4.769531 -5.59375 4.375 -5.8125 C 3.988281 -6.03125 3.460938 -6.140625 2.796875 -6.140625 L 1.546875 -6.140625 Z M 1.546875 -0.6875 "/></g></g></g><g fill="#ffffff" fill-opacity="1"><g transform="translate(185.408398, 265.883918)"><g><path d="M 0.71875 0 L 0.71875 -6.828125 L 4.9375 -6.828125 L 4.9375 -6.15625 L 1.546875 -6.15625 L 1.546875 -3.765625 L 4.65625 -3.765625 L 4.65625 -3.109375 L 1.546875 -3.109375 L 1.546875 -0.671875 L 4.9375 -0.671875 L 4.9375 0 Z M 0.71875 0 "/></g></g></g><g fill="#ffffff" fill-opacity="1"><g transform="translate(192.26439, 265.883918)"><g><path d="M 0.71875 0 L 0.71875 -6.828125 L 1.546875 -6.828125 L 1.546875 -0.65625 L 4.71875 -0.65625 L 4.71875 0 Z M 0.71875 0 "/></g></g></g><g fill="#ffffff" fill-opacity="1"><g transform="translate(198.740138, 265.883918)"><g><path d="M 0.71875 0 L 0.71875 -6.828125 L 1.546875 -6.828125 L 1.546875 0 Z M 0.71875 0 "/></g></g></g><g fill="#ffffff" fill-opacity="1"><g transform="translate(202.359131, 265.883918)"><g><path d="M 2.78125 0 L 0.21875 -6.828125 L 1.109375 -6.828125 L 3.25 -0.875 L 5.4375 -6.828125 L 6.296875 -6.828125 L 3.734375 0 Z M 2.78125 0 "/></g></g></g><g fill="#ffffff" fill-opacity="1"><g transform="translate(210.229124, 265.883918)"><g><path d="M 0.71875 0 L 0.71875 -6.828125 L 4.9375 -6.828125 L 4.9375 -6.15625 L 1.546875 -6.15625 L 1.546875 -3.765625 L 4.65625 -3.765625 L 4.65625 -3.109375 L 1.546875 -3.109375 L 1.546875 -0.671875 L 4.9375 -0.671875 L 4.9375 0 Z M 0.71875 0 "/></g></g></g><g fill="#ffffff" fill-opacity="1"><g transform="translate(217.085113, 265.883918)"><g><path d="M 0.71875 0 L 0.71875 -6.828125 L 2.921875 -6.828125 C 3.453125 -6.828125 3.882812 -6.738281 4.21875 -6.5625 C 4.5625 -6.382812 4.8125 -6.140625 4.96875 -5.828125 C 5.132812 -5.523438 5.21875 -5.191406 5.21875 -4.828125 C 5.21875 -4.398438 5.101562 -4.015625 4.875 -3.671875 C 4.644531 -3.328125 4.285156 -3.082031 3.796875 -2.9375 L 5.296875 0 L 4.328125 0 L 2.9375 -2.8125 L 1.546875 -2.8125 L 1.546875 0 Z M 1.546875 -3.46875 L 2.859375 -3.46875 C 3.390625 -3.46875 3.773438 -3.59375 4.015625 -3.84375 C 4.253906 -4.09375 4.375 -4.414062 4.375 -4.8125 C 4.375 -5.21875 4.253906 -5.535156 4.015625 -5.765625 C 3.785156 -6.003906 3.398438 -6.125 2.859375 -6.125 L 1.546875 -6.125 Z M 1.546875 -3.46875 "/></g></g></g><g fill="#ffffff" fill-opacity="1"><g transform="translate(224.223851, 265.883918)"><g><path d="M 2.421875 0 L 2.421875 -2.59375 L 0.1875 -6.828125 L 1.125 -6.828125 L 2.828125 -3.375 L 4.53125 -6.828125 L 5.453125 -6.828125 L 3.234375 -2.59375 L 3.234375 0 Z M 2.421875 0 "/></g></g></g></svg>